<svg xmlns="http://www.w3.org/2000/svg" width="900" height="600" viewBox="0 0 900 600">
<title>Flag of Syria (2025)</title>
<rect width="900" height="600" fill="#ffffff"/>
<rect width="900" height="200" y="0" fill="#007A3D"/>
<rect width="900" height="200" y="400" fill="#000000"/>
<path d="M250.00,242.00L263.02,282.08L305.16,282.08L271.07,306.85L284.09,346.92L250.00,322.16L215.91,346.92L228.93,306.85L194.84,282.08L236.98,282.08Z" fill="#CE1126"/><path d="M450.00,242.00L463.02,282.08L505.16,282.08L471.07,306.85L484.09,346.92L450.00,322.16L415.91,346.92L428.93,306.85L394.84,282.08L436.98,282.08Z" fill="#CE1126"/><path d="M650.00,242.00L663.02,282.08L705.16,282.08L671.07,306.85L684.09,346.92L650.00,322.16L615.91,346.92L628.93,306.85L594.84,282.08L636.98,282.08Z" fill="#CE1126"/>
</svg>